In.Time.2011.720p.BRRip.AltriX

____________________________________

109 min  -  Action | Sci-Fi | Thriller   -  28 October 2011 (USA)

_____________________________________
 
http://www.imdb.com/title/tt1637688/

______________________________________
Într-un viitor unde timpul înseamnă la propriu bani şi îmbătrânirea se opreşte la 25 de ani, singurul mod de a rămâne în viaţă e să câştigi, să fugi sau să moşteneşti mai mult timp. Will Salas trăieşte minut cu minut, până când o mană cerească îi dă acces la lumea înstăriţilor, unde face echipă cu o frumoasă moştenitoare tânără ca să distrugă sistemul corupt.

ÎN TIMP e scris şi regizat de Andrew Niccol, ale cărui merite includ scenariul pentru The Truman Show. Filmul e produs de Eric Newman (Children of Men), Niccol şi Marc Abraham (Children of Men).  Producătorii executivi sunt Andrew Z. Davis (Red Dragon), Kristel Laiblin (Children of Men) şi Amy Israel (Shall We Dance).  Talentele din culise îi includ pe operatorul de imagine nominalizat la Oscar de 9 ori, Roger Deakins (True Grit, The Reader), scenograful nominalizat la BAFTA Alex McDowell (Watchmen, Charlie and the Chocolate Factory) şi laureata cu 3 premii Oscar pentru costume Colleen Atwood (Alice in Wonderland, Memoirs of a Geisha, Chicago). 

________________________________________
Format                                   : MPEG-4
Format profile                           : Base Media
Codec ID                                 : isom
File size                                : 750 MiB
Duration                                 : 1h 49mn
Overall bit rate mode                    : Variable
Overall bit rate                         : 959 Kbps
Encoded date                             : UTC 2012-01-24 22:33:19
Tagged date                              : UTC 2012-01-24 22:33:19

Video
ID                                       : 1
Format                                   : AVC
Format/Info                              : Advanced Video Codec
Format profile                           : High@L5.0
Format settings, CABAC                   : Yes
Format settings, ReFrames                : 4 frames
Codec ID                                 : avc1
Codec ID/Info                            : Advanced Video Coding
Duration                                 : 1h 49mn
Bit rate                                 : 873 Kbps
Maximum bit rate                         : 10.3 Mbps
Width                                    : 1 280 pixels
Height                                   : 544 pixels
Display aspect ratio                     : 2.35:1
Frame rate mode                          : Constant
Frame rate                               : 23.976 fps
Color space                              : YUV
Chroma subsampling                       : 4:2:0
Bit depth                                : 8 bits
Scan type                                : Progressive
Bits/(Pixel*Frame)                       : 0.052
Stream size                              : 682 MiB (91%)
Title                                    : Video
Writing library                          : x264 core 119 r2106 07efeb4
Encoding settings                        : cabac=1 / ref=3 / deblock=1:0:0 / analyse=0x3:0x113 / me=hex / subme=7 / psy=1 / psy_rd=1.00:0.00 / mixed_ref=1 / me_range=16 / chroma_me=1 / trellis=1 / 8x8dct=1 / cqm=0 / deadzone=21,11 / fast_pskip=1 / chroma_qp_offset=-2 / threads=3 / sliced_threads=0 / nr=0 / decimate=1 / interlaced=0 / bluray_compat=0 / constrained_intra=0 / bframes=3 / b_pyramid=2 / b_adapt=1 / b_bias=0 / direct=1 / weightb=1 / open_gop=0 / weightp=2 / keyint=100 / keyint_min=10 / scenecut=40 / intra_refresh=0 / rc_lookahead=40 / rc=2pass / mbtree=1 / bitrate=873 / ratetol=1.0 / qcomp=0.60 / qpmin=0 / qpmax=69 / qpstep=4 / cplxblur=20.0 / qblur=0.5 / vbv_maxrate=20000 / vbv_bufsize=25000 / nal_hrd=none / ip_ratio=1.40 / aq=1:1.00
Encoded date                             : UTC 2012-01-24 22:33:19
Tagged date                              : UTC 2012-01-24 22:35:37

Audio
ID                                       : 2
Format                                   : AAC
Format/Info                              : Advanced Audio Codec
Format profile                           : HE-AAC / LC
Codec ID                                 : 40
Duration                                 : 1h 49mn
Bit rate mode                            : Variable
Bit rate                                 : 83.4 Kbps
Maximum bit rate                         : 113 Kbps
Channel(s)                               : 2 channels
Channel positions                        : Front: L R
Sampling rate                            : 48.0 KHz / 24.0 KHz
Compression mode                         : Lossy
Stream size                              : 65.2 MiB (9%)
Language                                 : English
Encoded date                             : UTC 2012-01-24 22:35:27
Tagged date                              : UTC 2012-01-24 22:35:37

Text #1
ID                                       : 3
Format                                   : Timed text
Codec ID                                 : tx3g
Duration                                 : 1h 49mn
Bit rate mode                            : Variable
Bit rate                                 : 43 bps
Stream size                              : 34.4 KiB (0%)
Language                                 : English
Encoded date                             : UTC 2012-01-24 22:35:36
Tagged date                              : UTC 2012-01-24 22:35:37

Text #2
ID                                       : 4
Format                                   : Timed text
Codec ID                                 : tx3g
Duration                                 : 1h 49mn
Bit rate mode                            : Variable
Bit rate                                 : 46 bps
Stream size                              : 36.4 KiB (0%)
Language                                 : English
Encoded date                             : UTC 2012-01-24 22:35:36
Tagged date                              : UTC 2012-01-24 22:35:37
